<?xml version="1.0" encoding="UTF-8" standalone="no"?><svg xmlns="http://www.w3.org/2000/svg" xmlns:xlink="http://www.w3.org/1999/xlink" contentStyleType="text/css" height="1926px" preserveAspectRatio="none" style="width:1433px;height:1926px;background:#FFFFFF;" version="1.1" viewBox="0 0 1433 1926" width="1433px" zoomAndPan="magnify"><defs/><g><rect fill="#FFFFFF" height="977.5938" style="stroke:#181818;stroke-width:1.0;" width="10" x="44" y="758.8906"/><rect fill="#FFFFFF" height="187.7969" style="stroke:#181818;stroke-width:1.0;" width="10" x="472" y="437.7578"/><rect fill="#FFFFFF" height="71.2656" style="stroke:#181818;stroke-width:1.0;" width="10" x="472" y="1311.7578"/><rect fill="#FFFFFF" height="264.0625" style="stroke:#181818;stroke-width:1.0;" width="10" x="472" y="1472.4219"/><rect fill="#FFFFFF" height="150.6641" style="stroke:#181818;stroke-width:1.0;" width="10" x="728" y="474.8906"/><rect fill="#FFFFFF" height="379.3984" style="stroke:#181818;stroke-width:1.0;" width="10" x="728" y="758.8906"/><rect fill="#FFFFFF" height="71.2656" style="stroke:#181818;stroke-width:1.0;" width="10" x="728" y="1311.7578"/><rect fill="#FFFFFF" height="129.5313" style="stroke:#181818;stroke-width:1.0;" width="10" x="1036" y="1138.2891"/><rect fill="#FFFFFF" height="205.9297" style="stroke:#181818;stroke-width:1.0;" width="10" x="1036" y="1472.4219"/><rect fill="none" height="307.1328" style="stroke:#000000;stroke-width:1.5;" width="1386.5" x="20" y="399.4922"/><rect fill="none" height="699.5313" style="stroke:#000000;stroke-width:1.5;" width="1396.5" x="10" y="720.625"/><rect fill="none" height="90.2031" style="stroke:#000000;stroke-width:1.5;" width="801" x="20" y="803.0234"/><rect fill="none" height="294.3281" style="stroke:#000000;stroke-width:1.5;" width="1406.5" x="10" y="1434.1563"/><rect fill="none" height="133.6641" style="stroke:#000000;stroke-width:1.5;" width="1386.5" x="20" y="1516.5547"/><line style="stroke:#181818;stroke-width:0.5;stroke-dasharray:5.0,5.0;" x1="49" x2="49" y1="81.2969" y2="1745.4844"/><line style="stroke:#181818;stroke-width:0.5;stroke-dasharray:5.0,5.0;" x1="271.5" x2="271.5" y1="81.2969" y2="1745.4844"/><line style="stroke:#181818;stroke-width:0.5;stroke-dasharray:5.0,5.0;" x1="375.5" x2="375.5" y1="81.2969" y2="1745.4844"/><line style="stroke:#181818;stroke-width:0.5;stroke-dasharray:5.0,5.0;" x1="476.5" x2="476.5" y1="81.2969" y2="1745.4844"/><line style="stroke:#181818;stroke-width:0.5;stroke-dasharray:5.0,5.0;" x1="733" x2="733" y1="81.2969" y2="1745.4844"/><line style="stroke:#181818;stroke-width:0.5;stroke-dasharray:5.0,5.0;" x1="886.5" x2="886.5" y1="81.2969" y2="1745.4844"/><line style="stroke:#181818;stroke-width:0.5;stroke-dasharray:5.0,5.0;" x1="1040.5" x2="1040.5" y1="81.2969" y2="1745.4844"/><line style="stroke:#181818;stroke-width:0.5;stroke-dasharray:5.0,5.0;" x1="1363.5" x2="1363.5" y1="81.2969" y2="1745.4844"/><text fill="#000000" font-family="sans-serif" font-size="14" lengthAdjust="spacing" textLength="32" x="30" y="77.9951">User</text><ellipse cx="49" cy="13.5" fill="#E2E2F0" rx="8" ry="8" style="stroke:#181818;stroke-width:0.5;"/><path d="M49,21.5 L49,48.5 M36,29.5 L62,29.5 M49,48.5 L36,63.5 M49,48.5 L62,63.5 " fill="none" style="stroke:#181818;stroke-width:0.5;"/><text fill="#000000" font-family="sans-serif" font-size="14" lengthAdjust="spacing" textLength="32" x="30" y="1757.4795">User</text><ellipse cx="49" cy="1769.2813" fill="#E2E2F0" rx="8" ry="8" style="stroke:#181818;stroke-width:0.5;"/><path d="M49,1777.2813 L49,1804.2813 M36,1785.2813 L62,1785.2813 M49,1804.2813 L36,1819.2813 M49,1804.2813 L62,1819.2813 " fill="none" style="stroke:#181818;stroke-width:0.5;"/><rect fill="#E2E2F0" height="30.2969" rx="2.5" ry="2.5" style="stroke:#181818;stroke-width:0.5;" width="69" x="237.5" y="50"/><text fill="#000000" font-family="sans-serif" font-size="14" lengthAdjust="spacing" textLength="55" x="244.5" y="69.9951">Impreza</text><rect fill="#E2E2F0" height="30.2969" rx="2.5" ry="2.5" style="stroke:#181818;stroke-width:0.5;" width="69" x="237.5" y="1744.4844"/><text fill="#000000" font-family="sans-serif" font-size="14" lengthAdjust="spacing" textLength="55" x="244.5" y="1764.4795">Impreza</text><rect fill="#E2E2F0" height="30.2969" rx="2.5" ry="2.5" style="stroke:#181818;stroke-width:0.5;" width="118" x="316.5" y="50"/><text fill="#000000" font-family="sans-serif" font-size="14" lengthAdjust="spacing" textLength="104" x="323.5" y="69.9951">Okno Czasowe</text><rect fill="#E2E2F0" height="30.2969" rx="2.5" ry="2.5" style="stroke:#181818;stroke-width:0.5;" width="118" x="316.5" y="1744.4844"/><text fill="#000000" font-family="sans-serif" font-size="14" lengthAdjust="spacing" textLength="104" x="323.5" y="1764.4795">Okno Czasowe</text><rect fill="#E2E2F0" height="30.2969" rx="2.5" ry="2.5" style="stroke:#181818;stroke-width:0.5;" width="65" x="444.5" y="50"/><text fill="#000000" font-family="sans-serif" font-size="14" lengthAdjust="spacing" textLength="51" x="451.5" y="69.9951">Miejsca</text><rect fill="#E2E2F0" height="30.2969" rx="2.5" ry="2.5" style="stroke:#181818;stroke-width:0.5;" width="65" x="444.5" y="1744.4844"/><text fill="#000000" font-family="sans-serif" font-size="14" lengthAdjust="spacing" textLength="51" x="451.5" y="1764.4795">Miejsca</text><rect fill="#E2E2F0" height="30.2969" rx="2.5" ry="2.5" style="stroke:#181818;stroke-width:0.5;" width="156" x="655" y="50"/><text fill="#000000" font-family="sans-serif" font-size="14" lengthAdjust="spacing" textLength="142" x="662" y="69.9951">Chwilowa rezerwacja</text><rect fill="#E2E2F0" height="30.2969" rx="2.5" ry="2.5" style="stroke:#181818;stroke-width:0.5;" width="156" x="655" y="1744.4844"/><text fill="#000000" font-family="sans-serif" font-size="14" lengthAdjust="spacing" textLength="142" x="662" y="1764.4795">Chwilowa rezerwacja</text><rect fill="#E2E2F0" height="30.2969" rx="2.5" ry="2.5" style="stroke:#181818;stroke-width:0.5;" width="131" x="821.5" y="50"/><text fill="#000000" font-family="sans-serif" font-size="14" lengthAdjust="spacing" textLength="117" x="828.5" y="69.9951">System płatności</text><rect fill="#E2E2F0" height="30.2969" rx="2.5" ry="2.5" style="stroke:#181818;stroke-width:0.5;" width="131" x="821.5" y="1744.4844"/><text fill="#000000" font-family="sans-serif" font-size="14" lengthAdjust="spacing" textLength="117" x="828.5" y="1764.4795">System płatności</text><rect fill="#E2E2F0" height="30.2969" rx="2.5" ry="2.5" style="stroke:#181818;stroke-width:0.5;" width="157" x="962.5" y="50"/><text fill="#000000" font-family="sans-serif" font-size="14" lengthAdjust="spacing" textLength="143" x="969.5" y="69.9951">Opłacona rezerwacja</text><rect fill="#E2E2F0" height="30.2969" rx="2.5" ry="2.5" style="stroke:#181818;stroke-width:0.5;" width="157" x="962.5" y="1744.4844"/><text fill="#000000" font-family="sans-serif" font-size="14" lengthAdjust="spacing" textLength="143" x="969.5" y="1764.4795">Opłacona rezerwacja</text><rect fill="#E2E2F0" height="30.2969" rx="2.5" ry="2.5" style="stroke:#181818;stroke-width:0.5;" width="65" x="1331.5" y="50"/><text fill="#000000" font-family="sans-serif" font-size="14" lengthAdjust="spacing" textLength="51" x="1338.5" y="69.9951">System</text><rect fill="#E2E2F0" height="30.2969" rx="2.5" ry="2.5" style="stroke:#181818;stroke-width:0.5;" width="65" x="1331.5" y="1744.4844"/><text fill="#000000" font-family="sans-serif" font-size="14" lengthAdjust="spacing" textLength="51" x="1338.5" y="1764.4795">System</text><rect fill="#FFFFFF" height="977.5938" style="stroke:#181818;stroke-width:1.0;" width="10" x="44" y="758.8906"/><rect fill="#FFFFFF" height="187.7969" style="stroke:#181818;stroke-width:1.0;" width="10" x="472" y="437.7578"/><rect fill="#FFFFFF" height="71.2656" style="stroke:#181818;stroke-width:1.0;" width="10" x="472" y="1311.7578"/><rect fill="#FFFFFF" height="264.0625" style="stroke:#181818;stroke-width:1.0;" width="10" x="472" y="1472.4219"/><rect fill="#FFFFFF" height="150.6641" style="stroke:#181818;stroke-width:1.0;" width="10" x="728" y="474.8906"/><rect fill="#FFFFFF" height="379.3984" style="stroke:#181818;stroke-width:1.0;" width="10" x="728" y="758.8906"/><rect fill="#FFFFFF" height="71.2656" style="stroke:#181818;stroke-width:1.0;" width="10" x="728" y="1311.7578"/><rect fill="#FFFFFF" height="129.5313" style="stroke:#181818;stroke-width:1.0;" width="10" x="1036" y="1138.2891"/><rect fill="#FFFFFF" height="205.9297" style="stroke:#181818;stroke-width:1.0;" width="10" x="1036" y="1472.4219"/><polygon fill="#181818" points="260,108.4297,270,112.4297,260,116.4297,264,112.4297" style="stroke:#181818;stroke-width:1.0;"/><line style="stroke:#181818;stroke-width:1.0;" x1="49" x2="266" y1="112.4297" y2="112.4297"/><text fill="#000000" font-family="sans-serif" font-size="13" lengthAdjust="spacing" textLength="159" x="56" y="107.3638">Pyta o dostępne imprezy</text><polygon fill="#181818" points="60,137.5625,50,141.5625,60,145.5625,56,141.5625" style="stroke:#181818;stroke-width:1.0;"/><line style="stroke:#181818;stroke-width:1.0;stroke-dasharray:2.0,2.0;" x1="54" x2="271" y1="141.5625" y2="141.5625"/><text fill="#000000" font-family="sans-serif" font-size="13" lengthAdjust="spacing" textLength="199" x="66" y="136.4966">Xwraca informację o imprezach</text><line style="stroke:#181818;stroke-width:1.0;" x1="49" x2="91" y1="170.6953" y2="170.6953"/><line style="stroke:#181818;stroke-width:1.0;" x1="91" x2="91" y1="170.6953" y2="183.6953"/><line style="stroke:#181818;stroke-width:1.0;" x1="50" x2="91" y1="183.6953" y2="183.6953"/><polygon fill="#181818" points="60,179.6953,50,183.6953,60,187.6953,56,183.6953" style="stroke:#181818;stroke-width:1.0;"/><text fill="#000000" font-family="sans-serif" font-size="13" lengthAdjust="spacing" textLength="106" x="56" y="165.6294">Wybiera imprezę</text><polygon fill="#181818" points="363.5,208.8281,373.5,212.8281,363.5,216.8281,367.5,212.8281" style="stroke:#181818;stroke-width:1.0;"/><line style="stroke:#181818;stroke-width:1.0;" x1="49" x2="369.5" y1="212.8281" y2="212.8281"/><text fill="#000000" font-family="sans-serif" font-size="13" lengthAdjust="spacing" textLength="197" x="56" y="207.7622">Pyta o dostępne okna czasowe</text><polygon fill="#181818" points="60,237.9609,50,241.9609,60,245.9609,56,241.9609" style="stroke:#181818;stroke-width:1.0;"/><line style="stroke:#181818;stroke-width:1.0;stroke-dasharray:2.0,2.0;" x1="54" x2="374.5" y1="241.9609" y2="241.9609"/><text fill="#000000" font-family="sans-serif" font-size="13" lengthAdjust="spacing" textLength="252" x="66" y="236.895">Zwraca informację o oknach czasowych</text><line style="stroke:#181818;stroke-width:1.0;" x1="49" x2="91" y1="271.0938" y2="271.0938"/><line style="stroke:#181818;stroke-width:1.0;" x1="91" x2="91" y1="271.0938" y2="284.0938"/><line style="stroke:#181818;stroke-width:1.0;" x1="50" x2="91" y1="284.0938" y2="284.0938"/><polygon fill="#181818" points="60,280.0938,50,284.0938,60,288.0938,56,284.0938" style="stroke:#181818;stroke-width:1.0;"/><text fill="#000000" font-family="sans-serif" font-size="13" lengthAdjust="spacing" textLength="143" x="56" y="266.0278">Wybiera okno czasowe</text><polygon fill="#181818" points="465,309.2266,475,313.2266,465,317.2266,469,313.2266" style="stroke:#181818;stroke-width:1.0;"/><line style="stroke:#181818;stroke-width:1.0;" x1="49" x2="471" y1="313.2266" y2="313.2266"/><text fill="#000000" font-family="sans-serif" font-size="13" lengthAdjust="spacing" textLength="210" x="56" y="308.1606">Pyta o miejsca wraz z ich cenami</text><polygon fill="#181818" points="60,338.3594,50,342.3594,60,346.3594,56,342.3594" style="stroke:#181818;stroke-width:1.0;"/><line style="stroke:#181818;stroke-width:1.0;stroke-dasharray:2.0,2.0;" x1="54" x2="476" y1="342.3594" y2="342.3594"/><text fill="#000000" font-family="sans-serif" font-size="13" lengthAdjust="spacing" textLength="315" x="66" y="337.2935">Zwraca informację o miejscach wraz z ich cenami</text><line style="stroke:#181818;stroke-width:1.0;" x1="49" x2="91" y1="371.4922" y2="371.4922"/><line style="stroke:#181818;stroke-width:1.0;" x1="91" x2="91" y1="371.4922" y2="384.4922"/><line style="stroke:#181818;stroke-width:1.0;" x1="50" x2="91" y1="384.4922" y2="384.4922"/><polygon fill="#181818" points="60,380.4922,50,384.4922,60,388.4922,56,384.4922" style="stroke:#181818;stroke-width:1.0;"/><text fill="#000000" font-family="sans-serif" font-size="13" lengthAdjust="spacing" textLength="190" x="56" y="366.4263">Wybiera miejsca do rezerwacji</text><path d="M20,399.4922 L84,399.4922 L84,406.625 L74,416.625 L20,416.625 L20,399.4922 " fill="#EEEEEE" style="stroke:#000000;stroke-width:1.5;"/><rect fill="none" height="307.1328" style="stroke:#000000;stroke-width:1.5;" width="1386.5" x="20" y="399.4922"/><text fill="#000000" font-family="sans-serif" font-size="13" font-weight="bold" lengthAdjust="spacing" textLength="19" x="35" y="412.5591">alt</text><text fill="#000000" font-family="sans-serif" font-size="11" font-weight="bold" lengthAdjust="spacing" textLength="148" x="99" y="411.7026">[Przypadek pozytywny]</text><polygon fill="#0000FF" points="460,433.7578,470,437.7578,460,441.7578,464,437.7578" style="stroke:#0000FF;stroke-width:1.0;"/><line style="stroke:#0000FF;stroke-width:1.0;" x1="49" x2="466" y1="437.7578" y2="437.7578"/><text fill="#000000" font-family="sans-serif" font-size="13" lengthAdjust="spacing" textLength="179" x="56" y="432.6919">Rezerwuje miejsca na seans</text><line style="stroke:#181818;stroke-width:1.0;" x1="482" x2="529" y1="461.8906" y2="461.8906"/><line style="stroke:#181818;stroke-width:1.0;" x1="529" x2="529" y1="461.8906" y2="474.8906"/><line style="stroke:#181818;stroke-width:1.0;" x1="488" x2="529" y1="474.8906" y2="474.8906"/><polygon fill="#181818" points="498,470.8906,488,474.8906,498,478.8906,494,474.8906" style="stroke:#181818;stroke-width:1.0;"/><text fill="#000000" font-family="sans-serif" font-size="13" lengthAdjust="spacing" textLength="71" x="494" y="456.8247">Rezerwacja</text><polygon fill="#181818" points="716,505.0234,726,509.0234,716,513.0234,720,509.0234" style="stroke:#181818;stroke-width:1.0;"/><line style="stroke:#181818;stroke-width:1.0;" x1="482" x2="722" y1="509.0234" y2="509.0234"/><text fill="#000000" font-family="sans-serif" font-size="13" lengthAdjust="spacing" textLength="138" x="489" y="503.9575">Utworzenie rezerwacji</text><polygon fill="#181818" points="493,534.1563,483,538.1563,493,542.1563,489,538.1563" style="stroke:#181818;stroke-width:1.0;"/><line style="stroke:#181818;stroke-width:1.0;" x1="487" x2="727" y1="538.1563" y2="538.1563"/><text fill="#000000" font-family="sans-serif" font-size="13" lengthAdjust="spacing" textLength="222" x="499" y="533.0903">Pobranie ceny zaliczki i pełnej ceny</text><polygon fill="#181818" points="716,563.2891,726,567.2891,716,571.2891,720,567.2891" style="stroke:#181818;stroke-width:1.0;"/><line style="stroke:#181818;stroke-width:1.0;stroke-dasharray:2.0,2.0;" x1="482" x2="722" y1="567.2891" y2="567.2891"/><text fill="#000000" font-family="sans-serif" font-size="13" lengthAdjust="spacing" textLength="103" x="489" y="562.2231">Zwrot informacji</text><polygon fill="#FFA500" points="1352,592.4219,1362,596.4219,1352,600.4219,1356,596.4219" style="stroke:#FFA500;stroke-width:1.0;"/><line style="stroke:#FFA500;stroke-width:1.0;stroke-dasharray:2.0,2.0;" x1="738" x2="1358" y1="596.4219" y2="596.4219"/><text fill="#000000" font-family="sans-serif" font-size="13" lengthAdjust="spacing" textLength="192" x="745" y="591.356">Zdarzenie: Rezerwacja biletów</text><polygon fill="#008000" points="60,621.5547,50,625.5547,60,629.5547,56,625.5547" style="stroke:#008000;stroke-width:1.0;"/><line style="stroke:#008000;stroke-width:1.0;" x1="54" x2="1363" y1="625.5547" y2="625.5547"/><text fill="#000000" font-family="sans-serif" font-size="13" lengthAdjust="spacing" textLength="238" x="66" y="620.4888">Mail o utworzonej chwilowej rejestracji</text><line style="stroke:#000000;stroke-width:1.0;stroke-dasharray:2.0,2.0;" x1="20" x2="1406.5" y1="634.5547" y2="634.5547"/><text fill="#000000" font-family="sans-serif" font-size="11" font-weight="bold" lengthAdjust="spacing" textLength="166" x="25" y="644.7651">[Miejsca nie są dostępne]</text><polygon fill="#0000FF" points="465,665.4922,475,669.4922,465,673.4922,469,669.4922" style="stroke:#0000FF;stroke-width:1.0;"/><line style="stroke:#0000FF;stroke-width:1.0;" x1="49" x2="471" y1="669.4922" y2="669.4922"/><text fill="#000000" font-family="sans-serif" font-size="13" lengthAdjust="spacing" textLength="179" x="56" y="664.4263">Rezerwuje miejsca na seans</text><polygon fill="#181818" points="60,694.625,50,698.625,60,702.625,56,698.625" style="stroke:#181818;stroke-width:1.0;"/><line style="stroke:#181818;stroke-width:1.0;stroke-dasharray:2.0,2.0;" x1="54" x2="476" y1="698.625" y2="698.625"/><text fill="#000000" font-family="sans-serif" font-size="13" lengthAdjust="spacing" textLength="78" x="66" y="693.5591">Zwraca błąd</text><path d="M10,720.625 L74,720.625 L74,727.7578 L64,737.7578 L10,737.7578 L10,720.625 " fill="#EEEEEE" style="stroke:#000000;stroke-width:1.5;"/><rect fill="none" height="699.5313" style="stroke:#000000;stroke-width:1.5;" width="1396.5" x="10" y="720.625"/><text fill="#000000" font-family="sans-serif" font-size="13" font-weight="bold" lengthAdjust="spacing" textLength="19" x="25" y="733.6919">alt</text><text fill="#000000" font-family="sans-serif" font-size="11" font-weight="bold" lengthAdjust="spacing" textLength="193" x="89" y="732.8354">[Płatność rozpoczęta na czas]</text><polygon fill="#181818" points="716,754.8906,726,758.8906,716,762.8906,720,758.8906" style="stroke:#181818;stroke-width:1.0;"/><line style="stroke:#181818;stroke-width:1.0;" x1="54" x2="722" y1="758.8906" y2="758.8906"/><text fill="#000000" font-family="sans-serif" font-size="13" lengthAdjust="spacing" textLength="140" x="61" y="753.8247">Rozpoczęcie płatności</text><polygon fill="#181818" points="65,784.0234,55,788.0234,65,792.0234,61,788.0234" style="stroke:#181818;stroke-width:1.0;"/><line style="stroke:#181818;stroke-width:1.0;" x1="59" x2="727" y1="788.0234" y2="788.0234"/><text fill="#000000" font-family="sans-serif" font-size="13" lengthAdjust="spacing" textLength="194" x="71" y="782.9575">Zapytanie o wielkość płatności</text><path d="M20,803.0234 L84,803.0234 L84,810.1563 L74,820.1563 L20,820.1563 L20,803.0234 " fill="#EEEEEE" style="stroke:#000000;stroke-width:1.5;"/><rect fill="none" height="90.2031" style="stroke:#000000;stroke-width:1.5;" width="801" x="20" y="803.0234"/><text fill="#000000" font-family="sans-serif" font-size="13" font-weight="bold" lengthAdjust="spacing" textLength="19" x="35" y="816.0903">alt</text><text fill="#000000" font-family="sans-serif" font-size="11" font-weight="bold" lengthAdjust="spacing" textLength="105" x="99" y="815.2339">[Płatność pełna]</text><polygon fill="#181818" points="716,837.2891,726,841.2891,716,845.2891,720,841.2891" style="stroke:#181818;stroke-width:1.0;"/><line style="stroke:#181818;stroke-width:1.0;" x1="54" x2="722" y1="841.2891" y2="841.2891"/><text fill="#000000" font-family="sans-serif" font-size="13" lengthAdjust="spacing" textLength="222" x="61" y="836.2231">Rozpoczęcie płatności pełnej kwoty</text><line style="stroke:#000000;stroke-width:1.0;stroke-dasharray:2.0,2.0;" x1="20" x2="821" y1="850.2891" y2="850.2891"/><text fill="#000000" font-family="sans-serif" font-size="11" font-weight="bold" lengthAdjust="spacing" textLength="152" x="25" y="860.4995">[Płatność tylko zaliczki]</text><polygon fill="#181818" points="716,881.2266,726,885.2266,716,889.2266,720,885.2266" style="stroke:#181818;stroke-width:1.0;"/><line style="stroke:#181818;stroke-width:1.0;" x1="54" x2="722" y1="885.2266" y2="885.2266"/><text fill="#000000" font-family="sans-serif" font-size="13" lengthAdjust="spacing" textLength="189" x="61" y="880.1606">Rozpoczęcie płatności zaliczki</text><polygon fill="#FFA500" points="1352,917.3594,1362,921.3594,1352,925.3594,1356,921.3594" style="stroke:#FFA500;stroke-width:1.0;"/><line style="stroke:#FFA500;stroke-width:1.0;stroke-dasharray:2.0,2.0;" x1="738" x2="1358" y1="921.3594" y2="921.3594"/><text fill="#000000" font-family="sans-serif" font-size="13" lengthAdjust="spacing" textLength="213" x="745" y="916.2935">Zdarzenie: Rozpoczęcie płatności</text><polygon fill="#181818" points="875,946.4922,885,950.4922,875,954.4922,879,950.4922" style="stroke:#181818;stroke-width:1.0;"/><line style="stroke:#181818;stroke-width:1.0;" x1="738" x2="881" y1="950.4922" y2="950.4922"/><text fill="#000000" font-family="sans-serif" font-size="13" lengthAdjust="spacing" textLength="125" x="745" y="945.4263">Rozpocznij płatność</text><polygon fill="#181818" points="65,975.625,55,979.625,65,983.625,61,979.625" style="stroke:#181818;stroke-width:1.0;"/><line style="stroke:#181818;stroke-width:1.0;" x1="59" x2="886" y1="979.625" y2="979.625"/><text fill="#000000" font-family="sans-serif" font-size="13" lengthAdjust="spacing" textLength="221" x="71" y="974.5591">Przekierowanie na stronę płatności</text><line style="stroke:#181818;stroke-width:1.0;" x1="54" x2="96" y1="1008.7578" y2="1008.7578"/><line style="stroke:#181818;stroke-width:1.0;" x1="96" x2="96" y1="1008.7578" y2="1021.7578"/><line style="stroke:#181818;stroke-width:1.0;" x1="55" x2="96" y1="1021.7578" y2="1021.7578"/><polygon fill="#181818" points="65,1017.7578,55,1021.7578,65,1025.7578,61,1021.7578" style="stroke:#181818;stroke-width:1.0;"/><text fill="#000000" font-family="sans-serif" font-size="13" lengthAdjust="spacing" textLength="54" x="61" y="1003.6919">Platność</text><polygon fill="#0000FF" points="875,1046.8906,885,1050.8906,875,1054.8906,879,1050.8906" style="stroke:#0000FF;stroke-width:1.0;"/><line style="stroke:#0000FF;stroke-width:1.0;" x1="54" x2="881" y1="1050.8906" y2="1050.8906"/><text fill="#000000" font-family="sans-serif" font-size="13" lengthAdjust="spacing" textLength="60" x="61" y="1045.8247">Opłacono</text><polygon fill="#FFA500" points="1352,1076.0234,1362,1080.0234,1352,1084.0234,1356,1080.0234" style="stroke:#FFA500;stroke-width:1.0;"/><line style="stroke:#FFA500;stroke-width:1.0;stroke-dasharray:2.0,2.0;" x1="887" x2="1358" y1="1080.0234" y2="1080.0234"/><text fill="#000000" font-family="sans-serif" font-size="13" lengthAdjust="spacing" textLength="276" x="894" y="1074.9575">Zdarzenie: płatność zakończona sukcesem</text><polygon fill="#181818" points="749,1105.1563,739,1109.1563,749,1113.1563,745,1109.1563" style="stroke:#181818;stroke-width:1.0;"/><line style="stroke:#181818;stroke-width:1.0;stroke-dasharray:2.0,2.0;" x1="743" x2="886" y1="1109.1563" y2="1109.1563"/><text fill="#000000" font-family="sans-serif" font-size="13" lengthAdjust="spacing" textLength="60" x="755" y="1104.0903">Opłacono</text><polygon fill="#181818" points="1024,1134.2891,1034,1138.2891,1024,1142.2891,1028,1138.2891" style="stroke:#181818;stroke-width:1.0;"/><line style="stroke:#181818;stroke-width:1.0;" x1="733" x2="1030" y1="1138.2891" y2="1138.2891"/><text fill="#000000" font-family="sans-serif" font-size="13" lengthAdjust="spacing" textLength="88" x="740" y="1133.2231">Zmienia się w</text><line style="stroke:#A80036;stroke-width:2.0;" x1="724" x2="742" y1="1129.2891" y2="1147.2891"/><line style="stroke:#A80036;stroke-width:2.0;" x1="724" x2="742" y1="1147.2891" y2="1129.2891"/><polygon fill="#FFA500" points="1352,1163.4219,1362,1167.4219,1352,1171.4219,1356,1167.4219" style="stroke:#FFA500;stroke-width:1.0;"/><line style="stroke:#FFA500;stroke-width:1.0;stroke-dasharray:2.0,2.0;" x1="1046" x2="1358" y1="1167.4219" y2="1167.4219"/><text fill="#000000" font-family="sans-serif" font-size="13" lengthAdjust="spacing" textLength="233" x="1053" y="1162.356">Zdarzenie: Rezerwacja jest opłacona</text><line style="stroke:#181818;stroke-width:1.0;" x1="1046" x2="1088" y1="1196.5547" y2="1196.5547"/><line style="stroke:#181818;stroke-width:1.0;" x1="1088" x2="1088" y1="1196.5547" y2="1209.5547"/><line style="stroke:#181818;stroke-width:1.0;" x1="1047" x2="1088" y1="1209.5547" y2="1209.5547"/><polygon fill="#181818" points="1057,1205.5547,1047,1209.5547,1057,1213.5547,1053,1209.5547" style="stroke:#181818;stroke-width:1.0;"/><text fill="#000000" font-family="sans-serif" font-size="13" lengthAdjust="spacing" textLength="235" x="1053" y="1191.4888">Generowanie biletów oraz voucherów</text><polygon fill="#008000" points="65,1234.6875,55,1238.6875,65,1242.6875,61,1238.6875" style="stroke:#008000;stroke-width:1.0;"/><line style="stroke:#008000;stroke-width:1.0;" x1="59" x2="1035" y1="1238.6875" y2="1238.6875"/><text fill="#000000" font-family="sans-serif" font-size="13" lengthAdjust="spacing" textLength="103" x="71" y="1233.6216">Wysłanie biletów</text><polygon fill="#FFA500" points="1352,1263.8203,1362,1267.8203,1352,1271.8203,1356,1267.8203" style="stroke:#FFA500;stroke-width:1.0;"/><line style="stroke:#FFA500;stroke-width:1.0;stroke-dasharray:2.0,2.0;" x1="1041" x2="1358" y1="1267.8203" y2="1267.8203"/><text fill="#000000" font-family="sans-serif" font-size="13" lengthAdjust="spacing" textLength="294" x="1048" y="1262.7544">Zdarzenie: Rezerwacja jest opłacona i wysłana</text><line style="stroke:#000000;stroke-width:1.0;stroke-dasharray:2.0,2.0;" x1="10" x2="1406.5" y1="1276.8203" y2="1276.8203"/><text fill="#000000" font-family="sans-serif" font-size="11" font-weight="bold" lengthAdjust="spacing" textLength="265" x="15" y="1287.0308">[Brak płatności w przeznaczonym czasie]</text><polygon fill="#008000" points="493,1307.7578,483,1311.7578,493,1315.7578,489,1311.7578" style="stroke:#008000;stroke-width:1.0;"/><line style="stroke:#008000;stroke-width:1.0;" x1="487" x2="727" y1="1311.7578" y2="1311.7578"/><text fill="#000000" font-family="sans-serif" font-size="13" lengthAdjust="spacing" textLength="149" x="499" y="1306.6919">Zatrzymanie rezerwacji</text><line style="stroke:#181818;stroke-width:1.0;" x1="482" x2="524" y1="1340.8906" y2="1340.8906"/><line style="stroke:#181818;stroke-width:1.0;" x1="524" x2="524" y1="1340.8906" y2="1353.8906"/><line style="stroke:#181818;stroke-width:1.0;" x1="483" x2="524" y1="1353.8906" y2="1353.8906"/><polygon fill="#181818" points="493,1349.8906,483,1353.8906,493,1357.8906,489,1353.8906" style="stroke:#181818;stroke-width:1.0;"/><text fill="#000000" font-family="sans-serif" font-size="13" lengthAdjust="spacing" textLength="135" x="489" y="1335.8247">Zwolnienie rezerwacji</text><polygon fill="#FFA500" points="1352,1379.0234,1362,1383.0234,1352,1387.0234,1356,1383.0234" style="stroke:#FFA500;stroke-width:1.0;"/><line style="stroke:#FFA500;stroke-width:1.0;stroke-dasharray:2.0,2.0;" x1="733" x2="1358" y1="1383.0234" y2="1383.0234"/><text fill="#000000" font-family="sans-serif" font-size="13" lengthAdjust="spacing" textLength="201" x="740" y="1377.9575">Zdarzenie: Rezerwacja zerwana</text><line style="stroke:#A80036;stroke-width:2.0;" x1="724" x2="742" y1="1374.0234" y2="1392.0234"/><line style="stroke:#A80036;stroke-width:2.0;" x1="724" x2="742" y1="1392.0234" y2="1374.0234"/><polygon fill="#008000" points="65,1408.1563,55,1412.1563,65,1416.1563,61,1412.1563" style="stroke:#008000;stroke-width:1.0;"/><line style="stroke:#008000;stroke-width:1.0;" x1="59" x2="1363" y1="1412.1563" y2="1412.1563"/><text fill="#000000" font-family="sans-serif" font-size="13" lengthAdjust="spacing" textLength="164" x="71" y="1407.0903">Mail o zerwaniu rezerwacji</text><path d="M10,1434.1563 L80,1434.1563 L80,1441.2891 L70,1451.2891 L10,1451.2891 L10,1434.1563 " fill="#EEEEEE" style="stroke:#000000;stroke-width:1.5;"/><rect fill="none" height="294.3281" style="stroke:#000000;stroke-width:1.5;" width="1406.5" x="10" y="1434.1563"/><text fill="#000000" font-family="sans-serif" font-size="13" font-weight="bold" lengthAdjust="spacing" textLength="25" x="25" y="1447.2231">opt</text><text fill="#000000" font-family="sans-serif" font-size="11" font-weight="bold" lengthAdjust="spacing" textLength="208" x="95" y="1446.3667">[Zerwanie opłaconej rezerwacji]</text><polygon fill="#0000FF" points="1024,1468.4219,1034,1472.4219,1024,1476.4219,1028,1472.4219" style="stroke:#0000FF;stroke-width:1.0;"/><line style="stroke:#0000FF;stroke-width:1.0;" x1="54" x2="1030" y1="1472.4219" y2="1472.4219"/><text fill="#000000" font-family="sans-serif" font-size="13" lengthAdjust="spacing" textLength="139" x="61" y="1467.356">Informacja o zerwaniu</text><polygon fill="#FFA500" points="1352,1497.5547,1362,1501.5547,1352,1505.5547,1356,1501.5547" style="stroke:#FFA500;stroke-width:1.0;"/><line style="stroke:#FFA500;stroke-width:1.0;stroke-dasharray:2.0,2.0;" x1="1046" x2="1358" y1="1501.5547" y2="1501.5547"/><text fill="#000000" font-family="sans-serif" font-size="13" lengthAdjust="spacing" textLength="189" x="1053" y="1496.4888">Opłacona rezerwacja zerwana</text><path d="M20,1516.5547 L90,1516.5547 L90,1523.6875 L80,1533.6875 L20,1533.6875 L20,1516.5547 " fill="#EEEEEE" style="stroke:#000000;stroke-width:1.5;"/><rect fill="none" height="133.6641" style="stroke:#000000;stroke-width:1.5;" width="1386.5" x="20" y="1516.5547"/><text fill="#000000" font-family="sans-serif" font-size="13" font-weight="bold" lengthAdjust="spacing" textLength="25" x="35" y="1529.6216">opt</text><text fill="#000000" font-family="sans-serif" font-size="11" font-weight="bold" lengthAdjust="spacing" textLength="136" x="105" y="1528.7651">[Płatność była pełna]</text><polygon fill="#181818" points="898,1550.8203,888,1554.8203,898,1558.8203,894,1554.8203" style="stroke:#181818;stroke-width:1.0;"/><line style="stroke:#181818;stroke-width:1.0;" x1="892" x2="1035" y1="1554.8203" y2="1554.8203"/><text fill="#000000" font-family="sans-serif" font-size="13" lengthAdjust="spacing" textLength="125" x="904" y="1549.7544">Rozpoczęcie zwrotu</text><polygon fill="#FFA500" points="1352,1579.9531,1362,1583.9531,1352,1587.9531,1356,1583.9531" style="stroke:#FFA500;stroke-width:1.0;"/><line style="stroke:#FFA500;stroke-width:1.0;stroke-dasharray:2.0,2.0;" x1="1046" x2="1358" y1="1583.9531" y2="1583.9531"/><text fill="#000000" font-family="sans-serif" font-size="13" lengthAdjust="spacing" textLength="172" x="1053" y="1578.8872">Wymagany zwrot pieniędzy</text><polygon fill="#008000" points="65,1609.0859,55,1613.0859,65,1617.0859,61,1613.0859" style="stroke:#008000;stroke-width:1.0;"/><line style="stroke:#008000;stroke-width:1.0;" x1="59" x2="1363" y1="1613.0859" y2="1613.0859"/><text fill="#000000" font-family="sans-serif" font-size="13" lengthAdjust="spacing" textLength="140" x="71" y="1608.02">Mail o zwrocie gotowki</text><polygon fill="#008000" points="65,1638.2188,55,1642.2188,65,1646.2188,61,1642.2188" style="stroke:#008000;stroke-width:1.0;"/><line style="stroke:#008000;stroke-width:1.0;" x1="59" x2="886" y1="1642.2188" y2="1642.2188"/><text fill="#000000" font-family="sans-serif" font-size="13" lengthAdjust="spacing" textLength="101" x="71" y="1637.1528">Zwrot pieniędzy</text><polygon fill="#181818" points="493,1674.3516,483,1678.3516,493,1682.3516,489,1678.3516" style="stroke:#181818;stroke-width:1.0;"/><line style="stroke:#181818;stroke-width:1.0;" x1="487" x2="1040" y1="1678.3516" y2="1678.3516"/><text fill="#000000" font-family="sans-serif" font-size="13" lengthAdjust="spacing" textLength="229" x="499" y="1673.2856">Informacja o zakończeniu rezerwacji</text><line style="stroke:#A80036;stroke-width:2.0;" x1="1032" x2="1050" y1="1669.3516" y2="1687.3516"/><line style="stroke:#A80036;stroke-width:2.0;" x1="1032" x2="1050" y1="1687.3516" y2="1669.3516"/><line style="stroke:#181818;stroke-width:1.0;" x1="482" x2="524" y1="1707.4844" y2="1707.4844"/><line style="stroke:#181818;stroke-width:1.0;" x1="524" x2="524" y1="1707.4844" y2="1720.4844"/><line style="stroke:#181818;stroke-width:1.0;" x1="483" x2="524" y1="1720.4844" y2="1720.4844"/><polygon fill="#181818" points="493,1716.4844,483,1720.4844,493,1724.4844,489,1720.4844" style="stroke:#181818;stroke-width:1.0;"/><text fill="#000000" font-family="sans-serif" font-size="13" lengthAdjust="spacing" textLength="132" x="489" y="1702.4185">zwolnienie rezerwacji</text><rect fill="#DDDDDD" height="81.1875" id="_legend" rx="7.5" ry="7.5" style="stroke:#000000;stroke-width:1.0;" width="203" x="1214.5" y="1829.7813"/><text fill="#000000" font-family="sans-serif" font-size="14" lengthAdjust="spacing" textLength="35" x="1220.5" y="1850.7764">Kolor</text><text fill="#000000" font-family="sans-serif" font-size="14" lengthAdjust="spacing" textLength="25" x="1259.5" y="1850.7764">Typ</text><rect fill="#0000FF" height="16.2969" style="stroke:none;stroke-width:1.0;" width="35" x="1220.5" y="1854.0781"/><text fill="#000000" font-family="sans-serif" font-size="14" lengthAdjust="spacing" textLength="4" x="1220.5" y="1867.0732"> </text><text fill="#000000" font-family="sans-serif" font-size="14" lengthAdjust="spacing" textLength="66" x="1259.5" y="1867.0732">Komenda</text><rect fill="#FFA500" height="16.2969" style="stroke:none;stroke-width:1.0;" width="35" x="1220.5" y="1870.375"/><text fill="#000000" font-family="sans-serif" font-size="14" lengthAdjust="spacing" textLength="4" x="1220.5" y="1883.3701"> </text><text fill="#000000" font-family="sans-serif" font-size="14" lengthAdjust="spacing" textLength="70" x="1259.5" y="1883.3701">Zdarzenie</text><rect fill="#008000" height="16.2969" style="stroke:none;stroke-width:1.0;" width="35" x="1220.5" y="1886.6719"/><text fill="#000000" font-family="sans-serif" font-size="14" lengthAdjust="spacing" textLength="4" x="1220.5" y="1899.667"> </text><text fill="#000000" font-family="sans-serif" font-size="14" lengthAdjust="spacing" textLength="148" x="1259.5" y="1899.667">Akcja asynchroniczna</text><line style="stroke:#000000;stroke-width:1.0;" x1="1220.5" x2="1411.5" y1="1837.7813" y2="1837.7813"/><line style="stroke:#000000;stroke-width:1.0;" x1="1220.5" x2="1411.5" y1="1854.0781" y2="1854.0781"/><line style="stroke:#000000;stroke-width:1.0;" x1="1220.5" x2="1411.5" y1="1870.375" y2="1870.375"/><line style="stroke:#000000;stroke-width:1.0;" x1="1220.5" x2="1411.5" y1="1886.6719" y2="1886.6719"/><line style="stroke:#000000;stroke-width:1.0;" x1="1220.5" x2="1411.5" y1="1902.9688" y2="1902.9688"/><line style="stroke:#000000;stroke-width:1.0;" x1="1220.5" x2="1220.5" y1="1837.7813" y2="1902.9688"/><line style="stroke:#000000;stroke-width:1.0;" x1="1255.5" x2="1255.5" y1="1837.7813" y2="1902.9688"/><line style="stroke:#000000;stroke-width:1.0;" x1="1411.5" x2="1411.5" y1="1837.7813" y2="1902.9688"/><!--MD5=[aee41ce36169654ae7c06c4a6b71122c]
@startuml
Actor User as _user
Participant Impreza as _impreza
Participant "Okno Czasowe" as _okno
Participant Miejsca as _miejsca
Participant "Chwilowa rezerwacja" as _chwilowa_rezerwacja
Participant "System płatności" as _system_platnosci
Participant "Opłacona rezerwacja" as _oplacona_rezerwacja
Participant System as _system

legend right
    |Kolor| Typ |
    |<#Blue>| Komenda |
    |<#Orange>| Zdarzenie |
    |<#Green>| Akcja asynchroniczna |
endlegend
_user -> _impreza: Pyta o dostępne imprezy
return Xwraca informację o imprezach
_user -> _user: Wybiera imprezę

_user -> _okno: Pyta o dostępne okna czasowe
return Zwraca informację o oknach czasowych
_user -> _user: Wybiera okno czasowe

_user -> _miejsca: Pyta o miejsca wraz z ich cenami
return Zwraca informację o miejscach wraz z ich cenami

_user -> _user : Wybiera miejsca do rezerwacji

alt Przypadek pozytywny

_user -[#blue]> _miejsca: Rezerwuje miejsca na seans

activate _miejsca
_miejsca -> _miejsca: Rezerwacja
activate _chwilowa_rezerwacja
_miejsca -> _chwilowa_rezerwacja: Utworzenie rezerwacji
_chwilowa_rezerwacja -> _miejsca: Pobranie ceny zaliczki i pełnej ceny
_miejsca -[dashed]-> _chwilowa_rezerwacja: Zwrot informacji
_chwilowa_rezerwacja -[#Orange]-> _system : Zdarzenie: Rezerwacja biletów
_system [#Green]-> _user: Mail o utworzonej chwilowej rejestracji 
deactivate _miejsca
deactivate _chwilowa_rezerwacja


else Miejsca nie są dostępne

 _user -[#Blue]> _miejsca: Rezerwuje miejsca na seans
_miejsca -[dashed]-> _user: Zwraca błąd

end

alt Płatność rozpoczęta na czas

_user -> _chwilowa_rezerwacja : Rozpoczęcie płatności

activate _chwilowa_rezerwacja

activate _user
_chwilowa_rezerwacja -> _user: Zapytanie o wielkość płatności
alt Płatność pełna
_user -> _chwilowa_rezerwacja: Rozpoczęcie płatności pełnej kwoty
else Płatność tylko zaliczki
_user -> _chwilowa_rezerwacja: Rozpoczęcie płatności zaliczki
end
_chwilowa_rezerwacja -[#Orange]-> _system: Zdarzenie: Rozpoczęcie płatności

_chwilowa_rezerwacja -> _system_platnosci : Rozpocznij płatność
_system_platnosci -> _user : Przekierowanie na stronę płatności
_user -> _user: Platność
_user [#Blue]-> _system_platnosci: Opłacono
_system_platnosci -[#Orange]-> _system: Zdarzenie: płatność zakończona sukcesem
_system_platnosci - ->_chwilowa_rezerwacja:Opłacono
_chwilowa_rezerwacja -> _oplacona_rezerwacja: Zmienia się w 
destroy _chwilowa_rezerwacja 
activate _oplacona_rezerwacja
_oplacona_rezerwacja -[#Orange]->_system: Zdarzenie: Rezerwacja jest opłacona
_oplacona_rezerwacja -> _oplacona_rezerwacja: Generowanie biletów oraz voucherów
_oplacona_rezerwacja [#Green]-> _user: Wysłanie biletów
_oplacona_rezerwacja -[#Orange]->_system: Zdarzenie: Rezerwacja jest opłacona i wysłana
deactivate _oplacona_rezerwacja


else Brak płatności w przeznaczonym czasie
_chwilowa_rezerwacja [#Green]-> _miejsca: Zatrzymanie rezerwacji
activate _miejsca
activate _chwilowa_rezerwacja
_miejsca -> _miejsca : Zwolnienie rezerwacji
_chwilowa_rezerwacja -[#Orange]->_system: Zdarzenie: Rezerwacja zerwana
destroy _chwilowa_rezerwacja
deactivate _miejsca

_system [#Green]-> _user: Mail o zerwaniu rezerwacji
end

opt Zerwanie opłaconej rezerwacji
_user [#Blue]-> _oplacona_rezerwacja: Informacja o zerwaniu
activate _oplacona_rezerwacja
activate _miejsca
_oplacona_rezerwacja -[#Orange]-> _system: Opłacona rezerwacja zerwana
opt Płatność była pełna
_oplacona_rezerwacja -> _system_platnosci: Rozpoczęcie zwrotu
_oplacona_rezerwacja -[#Orange]-> _system: Wymagany zwrot pieniędzy
_system [#Green]->_user: Mail o zwrocie gotowki
_system_platnosci [#Green]->_user : Zwrot pieniędzy
end
_oplacona_rezerwacja -> _miejsca: Informacja o zakończeniu rezerwacji
destroy _oplacona_rezerwacja
_miejsca -> _miejsca : zwolnienie rezerwacji
end
@enduml

PlantUML version 1.2022.7(Mon Aug 22 19:01:30 CEST 2022)
(GPL source distribution)
Java Runtime: OpenJDK Runtime Environment
JVM: OpenJDK 64-Bit Server VM
Default Encoding: UTF-8
Language: en
Country: null
--></g></svg>