<?xml version="1.0" encoding="UTF-8" standalone="no"?><svg xmlns="http://www.w3.org/2000/svg" xmlns:xlink="http://www.w3.org/1999/xlink" contentStyleType="text/css" height="381px" preserveAspectRatio="none" style="width:920px;height:381px;background:#FFFFFF;" version="1.1" viewBox="0 0 920 381" width="920px" zoomAndPan="magnify"><defs/><g><!--MD5=[149fbe2d72588c68ec49cb5a919279a2]
cluster Punkt zamówień--><g id="cluster_Punkt zamówień"><path d="M8.5,6 L139.5,6 A3.75,3.75 0 0 1 142,8.5 L149,28.2969 L189.5,28.2969 A2.5,2.5 0 0 1 192,30.7969 L192,100.5 A2.5,2.5 0 0 1 189.5,103 L8.5,103 A2.5,2.5 0 0 1 6,100.5 L6,8.5 A2.5,2.5 0 0 1 8.5,6 " fill="none" style="stroke:#000000;stroke-width:1.5;"/><line style="stroke:#000000;stroke-width:1.5;" x1="6" x2="149" y1="28.2969" y2="28.2969"/><text fill="#000000" font-family="sans-serif" font-size="14" font-weight="bold" lengthAdjust="spacing" textLength="130" x="10" y="20.9951">Punkt zamówień</text></g><!--MD5=[eb375c73ac3bd1cd475832319661386c]
cluster Punkt odbioru--><g id="cluster_Punkt odbioru"><path d="M562.5,6 L674.5,6 A3.75,3.75 0 0 1 677,8.5 L684,28.2969 L727.5,28.2969 A2.5,2.5 0 0 1 730,30.7969 L730,100.5 A2.5,2.5 0 0 1 727.5,103 L562.5,103 A2.5,2.5 0 0 1 560,100.5 L560,8.5 A2.5,2.5 0 0 1 562.5,6 " fill="none" style="stroke:#000000;stroke-width:1.5;"/><line style="stroke:#000000;stroke-width:1.5;" x1="560" x2="684" y1="28.2969" y2="28.2969"/><text fill="#000000" font-family="sans-serif" font-size="14" font-weight="bold" lengthAdjust="spacing" textLength="111" x="564" y="20.9951">Punkt odbioru</text></g><!--MD5=[cc456e9620e3eb355e33255682ab0028]
cluster Cennik produktów--><g id="cluster_Cennik produktów"><path d="M717.5,152 L863.5,152 A3.75,3.75 0 0 1 866,154.5 L873,174.2969 L910.5,174.2969 A2.5,2.5 0 0 1 913,176.7969 L913,246.5 A2.5,2.5 0 0 1 910.5,249 L717.5,249 A2.5,2.5 0 0 1 715,246.5 L715,154.5 A2.5,2.5 0 0 1 717.5,152 " fill="none" style="stroke:#000000;stroke-width:1.5;"/><line style="stroke:#000000;stroke-width:1.5;" x1="715" x2="873" y1="174.2969" y2="174.2969"/><text fill="#000000" font-family="sans-serif" font-size="14" font-weight="bold" lengthAdjust="spacing" textLength="145" x="719" y="166.9951">Cennik produktów</text></g><!--MD5=[f21b716cb200a3746d516d5458a67f65]
cluster Produkt--><g id="cluster_Produkt"><path d="M441.5,152 L504.5,152 A3.75,3.75 0 0 1 507,154.5 L514,174.2969 L688.5,174.2969 A2.5,2.5 0 0 1 691,176.7969 L691,371.5 A2.5,2.5 0 0 1 688.5,374 L441.5,374 A2.5,2.5 0 0 1 439,371.5 L439,154.5 A2.5,2.5 0 0 1 441.5,152 " fill="none" style="stroke:#000000;stroke-width:1.5;"/><line style="stroke:#000000;stroke-width:1.5;" x1="439" x2="514" y1="174.2969" y2="174.2969"/><text fill="#000000" font-family="sans-serif" font-size="14" font-weight="bold" lengthAdjust="spacing" textLength="62" x="443" y="166.9951">Produkt</text></g><!--MD5=[e5fe2c502c0f07fe756e2a84519cc3fb]
cluster Zamówienie--><g id="cluster_Zamówienie"><path d="M242.5,6 L339.5,6 A3.75,3.75 0 0 1 342,8.5 L349,28.2969 L403.5,28.2969 A2.5,2.5 0 0 1 406,30.7969 L406,246.5 A2.5,2.5 0 0 1 403.5,249 L242.5,249 A2.5,2.5 0 0 1 240,246.5 L240,8.5 A2.5,2.5 0 0 1 242.5,6 " fill="none" style="stroke:#000000;stroke-width:1.5;"/><line style="stroke:#000000;stroke-width:1.5;" x1="240" x2="349" y1="28.2969" y2="28.2969"/><text fill="#000000" font-family="sans-serif" font-size="14" font-weight="bold" lengthAdjust="spacing" textLength="96" x="244" y="20.9951">Zamówienie</text></g><!--MD5=[c41614671481ef66ceab2a1fce0a9945]
entity _punkt_zamowien--><g id="elem__punkt_zamowien"><rect fill="#90EE90" height="46.2969" rx="2.5" ry="2.5" style="stroke:#181818;stroke-width:0.5;" width="154" x="22" y="41"/><rect fill="#90EE90" height="10" style="stroke:#181818;stroke-width:0.5;" width="15" x="156" y="46"/><rect fill="#90EE90" height="2" style="stroke:#181818;stroke-width:0.5;" width="4" x="154" y="48"/><rect fill="#90EE90" height="2" style="stroke:#181818;stroke-width:0.5;" width="4" x="154" y="52"/><text fill="#000000" font-family="sans-serif" font-size="14" lengthAdjust="spacing" textLength="114" x="37" y="73.9951">Punkt zamówień</text></g><!--MD5=[ef23a213f4514d7e496ce6946720ea53]
entity _punkt_odbioru--><g id="elem__punkt_odbioru"><rect fill="#90EE90" height="46.2969" rx="2.5" ry="2.5" style="stroke:#181818;stroke-width:0.5;" width="137" x="576.5" y="41"/><rect fill="#90EE90" height="10" style="stroke:#181818;stroke-width:0.5;" width="15" x="693.5" y="46"/><rect fill="#90EE90" height="2" style="stroke:#181818;stroke-width:0.5;" width="4" x="691.5" y="48"/><rect fill="#90EE90" height="2" style="stroke:#181818;stroke-width:0.5;" width="4" x="691.5" y="52"/><text fill="#000000" font-family="sans-serif" font-size="14" lengthAdjust="spacing" textLength="97" x="591.5" y="73.9951">Punkt odbioru</text></g><!--MD5=[765400a43cdc626100253359f54273ef]
entity _cennik_towarow--><g id="elem__cennik_towarow"><rect fill="#90EE90" height="46.2969" rx="2.5" ry="2.5" style="stroke:#181818;stroke-width:0.5;" width="166" x="731" y="187"/><rect fill="#90EE90" height="10" style="stroke:#181818;stroke-width:0.5;" width="15" x="877" y="192"/><rect fill="#90EE90" height="2" style="stroke:#181818;stroke-width:0.5;" width="4" x="875" y="194"/><rect fill="#90EE90" height="2" style="stroke:#181818;stroke-width:0.5;" width="4" x="875" y="198"/><text fill="#000000" font-family="sans-serif" font-size="14" lengthAdjust="spacing" textLength="126" x="746" y="219.9951">Cennik produktów</text></g><!--MD5=[75e7239f16dfd0938a69dffad00c96b4]
entity _produkt--><g id="elem__produkt"><rect fill="#90EE90" height="46.2969" rx="2.5" ry="2.5" style="stroke:#181818;stroke-width:0.5;" width="94" x="502" y="187"/><rect fill="#90EE90" height="10" style="stroke:#181818;stroke-width:0.5;" width="15" x="576" y="192"/><rect fill="#90EE90" height="2" style="stroke:#181818;stroke-width:0.5;" width="4" x="574" y="194"/><rect fill="#90EE90" height="2" style="stroke:#181818;stroke-width:0.5;" width="4" x="574" y="198"/><text fill="#000000" font-family="sans-serif" font-size="14" lengthAdjust="spacing" textLength="54" x="517" y="219.9951">Produkt</text></g><!--MD5=[cacc831e1d029af7544e19bcca2ceede]
entity _dostepnosc--><g id="elem__dostepnosc"><rect fill="#F1F1F1" height="46.2969" rx="2.5" ry="2.5" style="stroke:#181818;stroke-width:0.5;" width="220" x="455" y="312"/><rect fill="#F1F1F1" height="10" style="stroke:#181818;stroke-width:0.5;" width="15" x="655" y="317"/><rect fill="#F1F1F1" height="2" style="stroke:#181818;stroke-width:0.5;" width="4" x="653" y="319"/><rect fill="#F1F1F1" height="2" style="stroke:#181818;stroke-width:0.5;" width="4" x="653" y="323"/><text fill="#000000" font-family="sans-serif" font-size="14" lengthAdjust="spacing" textLength="180" x="470" y="344.9951">Dostępność dla nieletnich</text></g><!--MD5=[77b22026de29f113512421ada576f012]
entity _zamowienie--><g id="elem__zamowienie"><rect fill="#90EE90" height="46.2969" rx="2.5" ry="2.5" style="stroke:#181818;stroke-width:0.5;" width="124" x="256" y="41"/><rect fill="#90EE90" height="10" style="stroke:#181818;stroke-width:0.5;" width="15" x="360" y="46"/><rect fill="#90EE90" height="2" style="stroke:#181818;stroke-width:0.5;" width="4" x="358" y="48"/><rect fill="#90EE90" height="2" style="stroke:#181818;stroke-width:0.5;" width="4" x="358" y="52"/><text fill="#000000" font-family="sans-serif" font-size="14" lengthAdjust="spacing" textLength="84" x="271" y="73.9951">Zamówienie</text></g><!--MD5=[c9804bebe017d44598818ef7b6b1ac84]
entity _lista_towarow--><g id="elem__lista_towarow"><rect fill="#F1F1F1" height="46.2969" rx="2.5" ry="2.5" style="stroke:#181818;stroke-width:0.5;" width="133" x="256.5" y="187"/><rect fill="#F1F1F1" height="10" style="stroke:#181818;stroke-width:0.5;" width="15" x="369.5" y="192"/><rect fill="#F1F1F1" height="2" style="stroke:#181818;stroke-width:0.5;" width="4" x="367.5" y="194"/><rect fill="#F1F1F1" height="2" style="stroke:#181818;stroke-width:0.5;" width="4" x="367.5" y="198"/><text fill="#000000" font-family="sans-serif" font-size="14" lengthAdjust="spacing" textLength="93" x="271.5" y="219.9951">Lista towarów</text></g><!--MD5=[5fdc1f6c2c76cf6d39e46614183901ce]
link _zamowienie to _lista_towarow--><g id="link__zamowienie__lista_towarow"><path d="M318.77,87.18 C319.65,112.48 321.09,153.86 322.04,181.27 " fill="none" id="_zamowienie-to-_lista_towarow" style="stroke:#181818;stroke-width:1.0;"/><polygon fill="#181818" points="322.22,186.55,325.9093,177.4182,322.0487,181.5529,317.914,177.6923,322.22,186.55" style="stroke:#181818;stroke-width:1.0;"/><text fill="#000000" font-family="sans-serif" font-size="13" lengthAdjust="spacing" textLength="76" x="322" y="132.0669">Składa się z</text></g><!--MD5=[8ec6dd7ffd9154bfc34d53aace1755c8]
link _punkt_zamowien to _zamowienie--><g id="link__punkt_zamowien__zamowienie"><path d="M176.21,64 C200.48,64 227.08,64 250.61,64 " fill="none" id="_punkt_zamowien-to-_zamowienie" style="stroke:#181818;stroke-width:1.0;"/><polygon fill="#181818" points="255.9,64,246.9,60,250.9,64,246.9,68,255.9,64" style="stroke:#181818;stroke-width:1.0;"/><text fill="#000000" font-family="sans-serif" font-size="13" lengthAdjust="spacing" textLength="43" x="194.5" y="57.0669">Tworzy</text></g><!--MD5=[69de5d70a2d3392214b9a6f4a8946c9b]
link _punkt_odbioru to _zamowienie--><g id="link__punkt_odbioru__zamowienie"><path d="M576.46,64 C520.37,64 441.45,64 385.61,64 " fill="none" id="_punkt_odbioru-to-_zamowienie" style="stroke:#181818;stroke-width:1.0;"/><polygon fill="#181818" points="380.28,64,389.28,68,385.28,64,389.28,60,380.28,64" style="stroke:#181818;stroke-width:1.0;"/><text fill="#000000" font-family="sans-serif" font-size="13" lengthAdjust="spacing" textLength="160" x="398.25" y="57.0669">Ustawia jako zakończone</text></g><!--MD5=[05df8fede5585e28b0afec22eab06499]
reverse link _produkt to _cennik_towarow--><g id="link__produkt__cennik_towarow"><path d="M601.42,210 C638.36,210 688.59,210 730.95,210 " fill="none" id="_produkt-backto-_cennik_towarow" style="stroke:#181818;stroke-width:1.0;"/><polygon fill="#181818" points="596.07,210,605.07,214,601.07,210,605.07,206,596.07,210" style="stroke:#181818;stroke-width:1.0;"/><text fill="#000000" font-family="sans-serif" font-size="13" lengthAdjust="spacing" textLength="90" x="618.5" y="203.0669">Definiuje cenę</text></g><!--MD5=[6c8d23768364044beac3cf1cf358e12e]
link _lista_towarow to _produkt--><g id="link__lista_towarow__produkt"><path d="M389.59,210 C423.82,210 464.93,210 496.83,210 " fill="none" id="_lista_towarow-to-_produkt" style="stroke:#181818;stroke-width:1.0;"/><polygon fill="#181818" points="501.87,210,492.87,206,496.87,210,492.87,214,501.87,210" style="stroke:#181818;stroke-width:1.0;"/><text fill="#000000" font-family="sans-serif" font-size="13" lengthAdjust="spacing" textLength="76" x="407.75" y="203.0669">Składa się z</text></g><!--MD5=[aa709e16c217b0e00d3c4c42ecd4fd41]
link _produkt to _dostepnosc--><g id="link__produkt__dostepnosc"><path d="M551.9,233.27 C554.58,253.91 558.58,284.66 561.46,306.75 " fill="none" id="_produkt-to-_dostepnosc" style="stroke:#181818;stroke-width:1.0;"/><polygon fill="#181818" points="562.12,311.89,564.9293,302.4503,561.477,306.9315,556.9958,303.4792,562.12,311.89" style="stroke:#181818;stroke-width:1.0;"/><text fill="#000000" font-family="sans-serif" font-size="13" lengthAdjust="spacing" textLength="133" x="558" y="278.0669">Definiuje dostępność</text></g><!--MD5=[34726148c9caaa02d73ba1fd9e858057]
@startuml
top to bottom direction

package "Punkt zamówień" {
    [Punkt zamówień] as _punkt_zamowien #LightGreen
}
package "Punkt odbioru" {
    [Punkt odbioru] as _punkt_odbioru #LightGreen
}
package "Cennik produktów"{
    [Cennik produktów] as _cennik_towarow #LightGreen
}
package "Produkt"{
    [Produkt] as _produkt #LightGreen
    [Dostępność dla nieletnich] as _dostepnosc
}
package "Zamówienie"{
    [Zamówienie] as _zamowienie #LightGreen
    [Lista towarów] as _lista_towarow
}

_zamowienie - -> _lista_towarow : Składa się z
_punkt_zamowien -> _zamowienie : Tworzy
_punkt_odbioru -> _zamowienie : Ustawia jako zakończone 
_cennik_towarow -l-> _produkt : Definiuje cenę
_lista_towarow -> _produkt: Składa się z 
_produkt - ->_dostepnosc: Definiuje dostępność
@enduml

PlantUML version 1.2022.7(Mon Aug 22 19:01:30 CEST 2022)
(GPL source distribution)
Java Runtime: OpenJDK Runtime Environment
JVM: OpenJDK 64-Bit Server VM
Default Encoding: UTF-8
Language: en
Country: null
--></g></svg>